<svg xmlns="http://www.w3.org/2000/svg" xmlns:xlink="http://www.w3.org/1999/xlink" width="308" zoomAndPan="magnify" viewBox="0 0 230.87999 173.249993" height="231" preserveAspectRatio="xMidYMid meet" version="1.2"><defs><clipPath id="8a8690f8ac"><path d="M 0.4375 44 L 53 44 L 53 171.757812 L 0.4375 171.757812 Z M 0.4375 44 "/></clipPath><clipPath id="188b53cbf7"><path d="M 177 44 L 229.695312 44 L 229.695312 171.757812 L 177 171.757812 Z M 177 44 "/></clipPath><clipPath id="f7d7d37f5c"><path d="M 177 0 L 229.695312 0 L 229.695312 84 L 177 84 Z M 177 0 "/></clipPath><clipPath id="31c1e54437"><path d="M 0.4375 0 L 53 0 L 53 84 L 0.4375 84 Z M 0.4375 0 "/></clipPath><clipPath id="3c201d1ca6"><path d="M 0.4375 44 L 53 44 L 53 171.757812 L 0.4375 171.757812 Z M 0.4375 44 "/></clipPath><clipPath id="9c80734c75"><path d="M 177 44 L 229.695312 44 L 229.695312 171.757812 L 177 171.757812 Z M 177 44 "/></clipPath><clipPath id="e1e82b4e87"><path d="M 177 0 L 229.695312 0 L 229.695312 84 L 177 84 Z M 177 0 "/></clipPath><clipPath id="a8fda616eb"><path d="M 0.4375 0 L 53 0 L 53 84 L 0.4375 84 Z M 0.4375 0 "/></clipPath></defs><g id="0a45ba7e2a"><g clip-rule="nonzero" clip-path="url(#8a8690f8ac)"><path style=" stroke:none;fill-rule:nonzero;fill:#4285f4;fill-opacity:1;" d="M 16.199219 171.757812 L 52.738281 171.757812 L 52.738281 83.425781 L 0.539062 44.164062 L 0.539062 156.113281 C 0.539062 164.703125 7.601562 171.757812 16.199219 171.757812 "/></g><g clip-rule="nonzero" clip-path="url(#188b53cbf7)"><path style=" stroke:none;fill-rule:nonzero;fill:#34a853;fill-opacity:1;" d="M 177.703125 171.757812 L 214.242188 171.757812 C 222.839844 171.757812 229.898438 164.703125 229.898438 156.113281 L 229.898438 44.164062 L 177.703125 83.117188 "/></g><g clip-rule="nonzero" clip-path="url(#f7d7d37f5c)"><path style=" stroke:none;fill-rule:nonzero;fill:#fbbc04;fill-opacity:1;" d="M 177.703125 15.640625 L 177.703125 83.425781 L 229.898438 44.472656 L 229.898438 23.308594 C 229.898438 3.988281 207.792969 -7.054688 192.441406 4.601562 "/></g><path style=" stroke:none;fill-rule:nonzero;fill:#ea4335;fill-opacity:1;" d="M 52.738281 83.425781 L 52.738281 15.640625 L 115.375 62.570312 L 177.703125 15.640625 L 177.703125 83.425781 L 115.066406 130.042969 "/><g clip-rule="nonzero" clip-path="url(#31c1e54437)"><path style=" stroke:none;fill-rule:nonzero;fill:#c5221f;fill-opacity:1;" d="M 0.539062 23.308594 L 0.539062 44.164062 L 52.738281 83.117188 L 52.738281 15.640625 L 38 4.601562 C 22.648438 -6.746094 0.539062 4.292969 0.539062 23.308594 "/></g><g clip-rule="nonzero" clip-path="url(#3c201d1ca6)"><path style=" stroke:none;fill-rule:nonzero;fill:#4285f4;fill-opacity:1;" d="M 16.199219 171.757812 L 52.738281 171.757812 L 52.738281 83.425781 L 0.539062 44.164062 L 0.539062 156.113281 C 0.539062 164.703125 7.601562 171.757812 16.199219 171.757812 "/></g><g clip-rule="nonzero" clip-path="url(#9c80734c75)"><path style=" stroke:none;fill-rule:nonzero;fill:#34a853;fill-opacity:1;" d="M 177.703125 171.757812 L 214.242188 171.757812 C 222.839844 171.757812 229.898438 164.703125 229.898438 156.113281 L 229.898438 44.164062 L 177.703125 83.117188 "/></g><g clip-rule="nonzero" clip-path="url(#e1e82b4e87)"><path style=" stroke:none;fill-rule:nonzero;fill:#fbbc04;fill-opacity:1;" d="M 177.703125 15.640625 L 177.703125 83.425781 L 229.898438 44.472656 L 229.898438 23.308594 C 229.898438 3.988281 207.792969 -7.054688 192.441406 4.601562 "/></g><path style=" stroke:none;fill-rule:nonzero;fill:#ea4335;fill-opacity:1;" d="M 52.738281 83.425781 L 52.738281 15.640625 L 115.375 62.570312 L 177.703125 15.640625 L 177.703125 83.425781 L 115.066406 130.042969 "/><g clip-rule="nonzero" clip-path="url(#a8fda616eb)"><path style=" stroke:none;fill-rule:nonzero;fill:#c5221f;fill-opacity:1;" d="M 0.539062 23.308594 L 0.539062 44.164062 L 52.738281 83.117188 L 52.738281 15.640625 L 38 4.601562 C 22.648438 -6.746094 0.539062 4.292969 0.539062 23.308594 "/></g></g></svg>