<svg xmlns="http://www.w3.org/2000/svg" xmlns:xlink="http://www.w3.org/1999/xlink" width="258" zoomAndPan="magnify" viewBox="0 0 193.5 195.000001" height="260" preserveAspectRatio="xMidYMid meet" version="1.2"><defs><clipPath id="f9c6e8fce5"><path d="M 1 0 L 192.757812 0 L 192.757812 192 L 1 192 Z M 1 0 "/></clipPath></defs><g id="69f716cb88"><g clip-rule="nonzero" clip-path="url(#f9c6e8fce5)"><path style=" stroke:none;fill-rule:nonzero;fill:#0a66c2;fill-opacity:1;" d="M 164.785156 163.3125 L 136.367188 163.3125 L 136.367188 118.839844 C 136.367188 108.230469 136.179688 94.578125 121.585938 94.578125 C 106.785156 94.578125 104.523438 106.132812 104.523438 118.066406 L 104.523438 163.3125 L 76.105469 163.3125 L 76.105469 71.851562 L 103.386719 71.851562 L 103.386719 84.347656 L 103.769531 84.347656 C 104.449219 83.1875 105.203125 82.078125 106.03125 81.019531 C 106.859375 79.960938 107.757812 78.960938 108.722656 78.023438 C 109.6875 77.085938 110.710938 76.214844 111.792969 75.414062 C 112.871094 74.617188 114.003906 73.890625 115.183594 73.246094 C 116.363281 72.597656 117.582031 72.03125 118.835938 71.546875 C 120.09375 71.066406 121.375 70.667969 122.683594 70.359375 C 123.996094 70.050781 125.320312 69.828125 126.65625 69.695312 C 127.996094 69.566406 129.339844 69.523438 130.683594 69.574219 C 159.488281 69.574219 164.796875 88.507812 164.796875 113.140625 Z M 44.039062 59.347656 C 43.5 59.347656 42.960938 59.320312 42.425781 59.269531 C 41.886719 59.214844 41.351562 59.136719 40.824219 59.03125 C 40.292969 58.925781 39.769531 58.796875 39.253906 58.640625 C 38.738281 58.484375 38.230469 58.300781 37.730469 58.09375 C 37.230469 57.886719 36.742188 57.65625 36.265625 57.402344 C 35.789062 57.148438 35.328125 56.871094 34.878906 56.570312 C 34.429688 56.273438 33.996094 55.953125 33.578125 55.609375 C 33.160156 55.265625 32.761719 54.90625 32.378906 54.523438 C 31.996094 54.140625 31.636719 53.742188 31.292969 53.324219 C 30.949219 52.90625 30.628906 52.472656 30.328125 52.027344 C 30.027344 51.578125 29.75 51.113281 29.496094 50.640625 C 29.242188 50.164062 29.011719 49.675781 28.804688 49.175781 C 28.597656 48.679688 28.414062 48.171875 28.257812 47.652344 C 28.101562 47.136719 27.96875 46.613281 27.863281 46.085938 C 27.757812 45.554688 27.679688 45.023438 27.625 44.484375 C 27.574219 43.949219 27.546875 43.410156 27.546875 42.871094 C 27.546875 42.332031 27.574219 41.792969 27.625 41.253906 C 27.679688 40.71875 27.757812 40.183594 27.863281 39.65625 C 27.96875 39.125 28.101562 38.601562 28.257812 38.085938 C 28.414062 37.570312 28.59375 37.0625 28.800781 36.5625 C 29.007812 36.0625 29.238281 35.578125 29.492188 35.101562 C 29.746094 34.625 30.023438 34.160156 30.324219 33.714844 C 30.625 33.265625 30.945312 32.832031 31.289062 32.414062 C 31.632812 31.996094 31.992188 31.597656 32.375 31.214844 C 32.757812 30.832031 33.15625 30.472656 33.574219 30.128906 C 33.992188 29.785156 34.425781 29.464844 34.875 29.164062 C 35.324219 28.863281 35.785156 28.585938 36.261719 28.332031 C 36.738281 28.078125 37.226562 27.847656 37.722656 27.640625 C 38.222656 27.433594 38.730469 27.253906 39.25 27.097656 C 39.765625 26.941406 40.289062 26.808594 40.816406 26.703125 C 41.347656 26.597656 41.882812 26.519531 42.417969 26.464844 C 42.957031 26.414062 43.496094 26.386719 44.035156 26.386719 C 44.574219 26.386719 45.113281 26.410156 45.652344 26.464844 C 46.1875 26.519531 46.722656 26.597656 47.253906 26.703125 C 47.78125 26.808594 48.304688 26.9375 48.824219 27.09375 C 49.339844 27.25 49.847656 27.433594 50.347656 27.640625 C 50.84375 27.84375 51.332031 28.074219 51.808594 28.332031 C 52.285156 28.585938 52.75 28.863281 53.195312 29.160156 C 53.648438 29.460938 54.078125 29.78125 54.496094 30.125 C 54.914062 30.46875 55.316406 30.828125 55.695312 31.210938 C 56.078125 31.59375 56.441406 31.992188 56.785156 32.410156 C 57.125 32.828125 57.449219 33.257812 57.746094 33.707031 C 58.046875 34.15625 58.324219 34.617188 58.582031 35.09375 C 58.835938 35.570312 59.066406 36.058594 59.273438 36.558594 C 59.480469 37.054688 59.660156 37.5625 59.816406 38.078125 C 59.976562 38.597656 60.105469 39.121094 60.210938 39.648438 C 60.316406 40.179688 60.394531 40.710938 60.449219 41.25 C 60.503906 41.785156 60.527344 42.324219 60.527344 42.863281 C 60.527344 43.402344 60.503906 43.941406 60.449219 44.480469 C 60.398438 45.015625 60.316406 45.550781 60.214844 46.078125 C 60.109375 46.609375 59.976562 47.132812 59.820312 47.648438 C 59.664062 48.164062 59.480469 48.671875 59.273438 49.171875 C 59.066406 49.667969 58.835938 50.15625 58.582031 50.632812 C 58.328125 51.109375 58.050781 51.570312 57.75 52.019531 C 57.453125 52.46875 57.128906 52.902344 56.789062 53.320312 C 56.445312 53.738281 56.082031 54.136719 55.699219 54.519531 C 55.320312 54.902344 54.917969 55.261719 54.503906 55.605469 C 54.085938 55.949219 53.652344 56.269531 53.203125 56.570312 C 52.753906 56.867188 52.289062 57.144531 51.816406 57.402344 C 51.339844 57.65625 50.851562 57.886719 50.351562 58.09375 C 49.851562 58.300781 49.34375 58.480469 48.828125 58.636719 C 48.3125 58.792969 47.789062 58.925781 47.257812 59.03125 C 46.726562 59.136719 46.195312 59.214844 45.65625 59.269531 C 45.121094 59.320312 44.582031 59.347656 44.039062 59.347656 M 58.25 163.3125 L 29.800781 163.3125 L 29.800781 71.851562 L 58.25 71.851562 Z M 178.953125 0.0117188 L 15.523438 0.0117188 C 14.605469 0 13.695312 0.0820312 12.792969 0.25 C 11.886719 0.417969 11.011719 0.671875 10.160156 1.015625 C 9.304688 1.355469 8.496094 1.777344 7.726562 2.277344 C 6.957031 2.78125 6.242188 3.351562 5.585938 3.992188 C 4.929688 4.632812 4.339844 5.332031 3.820312 6.089844 C 3.300781 6.847656 2.863281 7.648438 2.5 8.492188 C 2.136719 9.335938 1.863281 10.207031 1.671875 11.105469 C 1.480469 12 1.382812 12.910156 1.371094 13.828125 L 1.371094 177.835938 C 1.382812 178.753906 1.480469 179.664062 1.671875 180.5625 C 1.859375 181.460938 2.136719 182.332031 2.496094 183.175781 C 2.859375 184.019531 3.300781 184.820312 3.820312 185.578125 C 4.339844 186.335938 4.925781 187.035156 5.582031 187.679688 C 6.238281 188.320312 6.953125 188.894531 7.722656 189.394531 C 8.492188 189.894531 9.304688 190.316406 10.15625 190.660156 C 11.007812 191.003906 11.886719 191.257812 12.789062 191.429688 C 13.691406 191.597656 14.605469 191.675781 15.523438 191.667969 L 178.953125 191.667969 C 179.871094 191.679688 180.785156 191.601562 181.691406 191.433594 C 182.597656 191.265625 183.476562 191.011719 184.332031 190.667969 C 185.1875 190.328125 186 189.90625 186.773438 189.40625 C 187.542969 188.902344 188.261719 188.332031 188.917969 187.691406 C 189.578125 187.046875 190.171875 186.347656 190.691406 185.589844 C 191.214844 184.832031 191.65625 184.03125 192.019531 183.183594 C 192.382812 182.339844 192.660156 181.46875 192.851562 180.566406 C 193.046875 179.667969 193.148438 178.757812 193.160156 177.835938 L 193.160156 13.816406 C 193.148438 12.894531 193.046875 11.988281 192.851562 11.085938 C 192.660156 10.1875 192.382812 9.316406 192.019531 8.472656 C 191.652344 7.625 191.210938 6.824219 190.6875 6.066406 C 190.167969 5.308594 189.578125 4.609375 188.917969 3.96875 C 188.257812 3.328125 187.542969 2.757812 186.769531 2.257812 C 185.996094 1.753906 185.183594 1.335938 184.328125 0.996094 C 183.476562 0.652344 182.59375 0.398438 181.691406 0.234375 C 180.785156 0.0664062 179.871094 -0.0117188 178.953125 0 "/><path style=" stroke:none;fill-rule:nonzero;fill:#0a66c2;fill-opacity:1;" d="M 164.785156 163.3125 L 136.367188 163.3125 L 136.367188 118.839844 C 136.367188 108.230469 136.179688 94.578125 121.585938 94.578125 C 106.785156 94.578125 104.523438 106.132812 104.523438 118.066406 L 104.523438 163.3125 L 76.105469 163.3125 L 76.105469 71.851562 L 103.386719 71.851562 L 103.386719 84.347656 L 103.769531 84.347656 C 104.449219 83.1875 105.203125 82.078125 106.03125 81.019531 C 106.859375 79.960938 107.757812 78.960938 108.722656 78.023438 C 109.6875 77.085938 110.710938 76.214844 111.792969 75.414062 C 112.871094 74.617188 114.003906 73.890625 115.183594 73.246094 C 116.363281 72.597656 117.582031 72.03125 118.835938 71.546875 C 120.09375 71.066406 121.375 70.667969 122.683594 70.359375 C 123.996094 70.050781 125.320312 69.828125 126.65625 69.695312 C 127.996094 69.566406 129.339844 69.523438 130.683594 69.574219 C 159.488281 69.574219 164.796875 88.507812 164.796875 113.140625 Z M 44.039062 59.347656 C 43.5 59.347656 42.960938 59.320312 42.425781 59.269531 C 41.886719 59.214844 41.351562 59.136719 40.824219 59.03125 C 40.292969 58.925781 39.769531 58.796875 39.253906 58.640625 C 38.738281 58.484375 38.230469 58.300781 37.730469 58.09375 C 37.230469 57.886719 36.742188 57.65625 36.265625 57.402344 C 35.789062 57.148438 35.328125 56.871094 34.878906 56.570312 C 34.429688 56.273438 33.996094 55.953125 33.578125 55.609375 C 33.160156 55.265625 32.761719 54.90625 32.378906 54.523438 C 31.996094 54.140625 31.636719 53.742188 31.292969 53.324219 C 30.949219 52.90625 30.628906 52.472656 30.328125 52.027344 C 30.027344 51.578125 29.75 51.113281 29.496094 50.640625 C 29.242188 50.164062 29.011719 49.675781 28.804688 49.175781 C 28.597656 48.679688 28.414062 48.171875 28.257812 47.652344 C 28.101562 47.136719 27.96875 46.613281 27.863281 46.085938 C 27.757812 45.554688 27.679688 45.023438 27.625 44.484375 C 27.574219 43.949219 27.546875 43.410156 27.546875 42.871094 C 27.546875 42.332031 27.574219 41.792969 27.625 41.253906 C 27.679688 40.71875 27.757812 40.183594 27.863281 39.65625 C 27.96875 39.125 28.101562 38.601562 28.257812 38.085938 C 28.414062 37.570312 28.59375 37.0625 28.800781 36.5625 C 29.007812 36.0625 29.238281 35.578125 29.492188 35.101562 C 29.746094 34.625 30.023438 34.160156 30.324219 33.714844 C 30.625 33.265625 30.945312 32.832031 31.289062 32.414062 C 31.632812 31.996094 31.992188 31.597656 32.375 31.214844 C 32.757812 30.832031 33.15625 30.472656 33.574219 30.128906 C 33.992188 29.785156 34.425781 29.464844 34.875 29.164062 C 35.324219 28.863281 35.785156 28.585938 36.261719 28.332031 C 36.738281 28.078125 37.226562 27.847656 37.722656 27.640625 C 38.222656 27.433594 38.730469 27.253906 39.25 27.097656 C 39.765625 26.941406 40.289062 26.808594 40.816406 26.703125 C 41.347656 26.597656 41.882812 26.519531 42.417969 26.464844 C 42.957031 26.414062 43.496094 26.386719 44.035156 26.386719 C 44.574219 26.386719 45.113281 26.410156 45.652344 26.464844 C 46.1875 26.519531 46.722656 26.597656 47.253906 26.703125 C 47.78125 26.808594 48.304688 26.9375 48.824219 27.09375 C 49.339844 27.25 49.847656 27.433594 50.347656 27.640625 C 50.84375 27.84375 51.332031 28.074219 51.808594 28.332031 C 52.285156 28.585938 52.75 28.863281 53.195312 29.160156 C 53.648438 29.460938 54.078125 29.78125 54.496094 30.125 C 54.914062 30.46875 55.316406 30.828125 55.695312 31.210938 C 56.078125 31.59375 56.441406 31.992188 56.785156 32.410156 C 57.125 32.828125 57.449219 33.257812 57.746094 33.707031 C 58.046875 34.15625 58.324219 34.617188 58.582031 35.09375 C 58.835938 35.570312 59.066406 36.058594 59.273438 36.558594 C 59.480469 37.054688 59.660156 37.5625 59.816406 38.078125 C 59.976562 38.597656 60.105469 39.121094 60.210938 39.648438 C 60.316406 40.179688 60.394531 40.710938 60.449219 41.25 C 60.503906 41.785156 60.527344 42.324219 60.527344 42.863281 C 60.527344 43.402344 60.503906 43.941406 60.449219 44.480469 C 60.398438 45.015625 60.316406 45.550781 60.214844 46.078125 C 60.109375 46.609375 59.976562 47.132812 59.820312 47.648438 C 59.664062 48.164062 59.480469 48.671875 59.273438 49.171875 C 59.066406 49.667969 58.835938 50.15625 58.582031 50.632812 C 58.328125 51.109375 58.050781 51.570312 57.75 52.019531 C 57.453125 52.46875 57.128906 52.902344 56.789062 53.320312 C 56.445312 53.738281 56.082031 54.136719 55.699219 54.519531 C 55.320312 54.902344 54.917969 55.261719 54.503906 55.605469 C 54.085938 55.949219 53.652344 56.269531 53.203125 56.570312 C 52.753906 56.867188 52.289062 57.144531 51.816406 57.402344 C 51.339844 57.65625 50.851562 57.886719 50.351562 58.09375 C 49.851562 58.300781 49.34375 58.480469 48.828125 58.636719 C 48.3125 58.792969 47.789062 58.925781 47.257812 59.03125 C 46.726562 59.136719 46.195312 59.214844 45.65625 59.269531 C 45.121094 59.320312 44.582031 59.347656 44.039062 59.347656 M 58.25 163.3125 L 29.800781 163.3125 L 29.800781 71.851562 L 58.25 71.851562 Z M 178.953125 0.0117188 L 15.523438 0.0117188 C 14.605469 0 13.695312 0.0820312 12.792969 0.25 C 11.886719 0.417969 11.011719 0.671875 10.160156 1.015625 C 9.304688 1.355469 8.496094 1.777344 7.726562 2.277344 C 6.957031 2.78125 6.242188 3.351562 5.585938 3.992188 C 4.929688 4.632812 4.339844 5.332031 3.820312 6.089844 C 3.300781 6.847656 2.863281 7.648438 2.5 8.492188 C 2.136719 9.335938 1.863281 10.207031 1.671875 11.105469 C 1.480469 12 1.382812 12.910156 1.371094 13.828125 L 1.371094 177.835938 C 1.382812 178.753906 1.480469 179.664062 1.671875 180.5625 C 1.859375 181.460938 2.136719 182.332031 2.496094 183.175781 C 2.859375 184.019531 3.300781 184.820312 3.820312 185.578125 C 4.339844 186.335938 4.925781 187.035156 5.582031 187.679688 C 6.238281 188.320312 6.953125 188.894531 7.722656 189.394531 C 8.492188 189.894531 9.304688 190.316406 10.15625 190.660156 C 11.007812 191.003906 11.886719 191.257812 12.789062 191.429688 C 13.691406 191.597656 14.605469 191.675781 15.523438 191.667969 L 178.953125 191.667969 C 179.871094 191.679688 180.785156 191.601562 181.691406 191.433594 C 182.597656 191.265625 183.476562 191.011719 184.332031 190.667969 C 185.1875 190.328125 186 189.90625 186.773438 189.40625 C 187.542969 188.902344 188.261719 188.332031 188.917969 187.691406 C 189.578125 187.046875 190.171875 186.347656 190.691406 185.589844 C 191.214844 184.832031 191.65625 184.03125 192.019531 183.183594 C 192.382812 182.339844 192.660156 181.46875 192.851562 180.566406 C 193.046875 179.667969 193.148438 178.757812 193.160156 177.835938 L 193.160156 13.816406 C 193.148438 12.894531 193.046875 11.988281 192.851562 11.085938 C 192.660156 10.1875 192.382812 9.316406 192.019531 8.472656 C 191.652344 7.625 191.210938 6.824219 190.6875 6.066406 C 190.167969 5.308594 189.578125 4.609375 188.917969 3.96875 C 188.257812 3.328125 187.542969 2.757812 186.769531 2.257812 C 185.996094 1.753906 185.183594 1.335938 184.328125 0.996094 C 183.476562 0.652344 182.59375 0.398438 181.691406 0.234375 C 180.785156 0.0664062 179.871094 -0.0117188 178.953125 0 "/></g></g></svg>