<svg xmlns="http://www.w3.org/2000/svg" xmlns:xlink="http://www.w3.org/1999/xlink" width="125" zoomAndPan="magnify" viewBox="0 0 93.75 20.25" height="27" preserveAspectRatio="xMidYMid meet" version="1.2"><defs><clipPath id="44846516ac"><path d="M 1.554688 2.949219 L 10.230469 2.949219 L 10.230469 15.96875 L 1.554688 15.96875 Z M 1.554688 2.949219 "/></clipPath></defs><g id="ccbb14440a"><g clip-rule="nonzero" clip-path="url(#44846516ac)"><path style=" stroke:none;fill-rule:nonzero;fill:#ffcc00;fill-opacity:1;" d="M 5.8125 2.949219 C 3.460938 2.949219 1.554688 4.859375 1.554688 7.210938 C 1.554688 10.300781 5.8125 15.964844 5.8125 15.964844 C 5.8125 15.964844 10.074219 10.300781 10.074219 7.210938 C 10.074219 4.859375 8.164062 2.949219 5.8125 2.949219 "/></g><path style=" stroke:none;fill-rule:nonzero;fill:#2e5e4e;fill-opacity:1;" d="M 8.386719 7.210938 C 8.386719 8.632812 7.234375 9.78125 5.8125 9.78125 C 4.394531 9.78125 3.242188 8.632812 3.242188 7.210938 C 3.242188 5.789062 4.394531 4.640625 5.8125 4.640625 C 7.234375 4.640625 8.386719 5.789062 8.386719 7.210938 "/><g style="fill:#f1f1f1;fill-opacity:1;"><g transform="translate(13.759637, 13.55006)"><path style="stroke:none" d="M 4.5625 0.109375 C 3.988281 0.109375 3.453125 0.00390625 2.953125 -0.203125 C 2.460938 -0.410156 2.03125 -0.703125 1.65625 -1.078125 C 1.28125 -1.453125 0.984375 -1.878906 0.765625 -2.359375 C 0.554688 -2.847656 0.453125 -3.375 0.453125 -3.9375 C 0.453125 -4.5 0.554688 -5.023438 0.765625 -5.515625 C 0.984375 -6.003906 1.28125 -6.4375 1.65625 -6.8125 C 2.03125 -7.1875 2.460938 -7.476562 2.953125 -7.6875 C 3.453125 -7.894531 3.988281 -8 4.5625 -8 C 4.914062 -8 5.253906 -7.957031 5.578125 -7.875 C 5.910156 -7.800781 6.21875 -7.691406 6.5 -7.546875 C 6.613281 -7.484375 6.695312 -7.398438 6.75 -7.296875 C 6.8125 -7.203125 6.84375 -7.101562 6.84375 -7 C 6.84375 -6.8125 6.78125 -6.644531 6.65625 -6.5 C 6.539062 -6.363281 6.390625 -6.296875 6.203125 -6.296875 C 6.140625 -6.296875 6.078125 -6.300781 6.015625 -6.3125 C 5.953125 -6.332031 5.890625 -6.359375 5.828125 -6.390625 C 5.640625 -6.472656 5.4375 -6.535156 5.21875 -6.578125 C 5.007812 -6.617188 4.789062 -6.640625 4.5625 -6.640625 C 4.070312 -6.640625 3.625 -6.519531 3.21875 -6.28125 C 2.820312 -6.039062 2.503906 -5.710938 2.265625 -5.296875 C 2.035156 -4.890625 1.921875 -4.4375 1.921875 -3.9375 C 1.921875 -3.445312 2.035156 -2.992188 2.265625 -2.578125 C 2.503906 -2.171875 2.820312 -1.84375 3.21875 -1.59375 C 3.625 -1.351562 4.070312 -1.234375 4.5625 -1.234375 C 4.789062 -1.234375 5.039062 -1.253906 5.3125 -1.296875 C 5.582031 -1.347656 5.800781 -1.410156 5.96875 -1.484375 L 5.875 -1.15625 L 5.875 -3.078125 L 6.0625 -2.90625 L 4.8125 -2.90625 C 4.613281 -2.90625 4.445312 -2.96875 4.3125 -3.09375 C 4.1875 -3.226562 4.125 -3.390625 4.125 -3.578125 C 4.125 -3.773438 4.1875 -3.9375 4.3125 -4.0625 C 4.445312 -4.195312 4.613281 -4.265625 4.8125 -4.265625 L 6.65625 -4.265625 C 6.851562 -4.265625 7.015625 -4.195312 7.140625 -4.0625 C 7.265625 -3.925781 7.328125 -3.765625 7.328125 -3.578125 L 7.328125 -1.1875 C 7.328125 -1.03125 7.289062 -0.90625 7.21875 -0.8125 C 7.15625 -0.71875 7.078125 -0.640625 6.984375 -0.578125 C 6.640625 -0.367188 6.257812 -0.203125 5.84375 -0.078125 C 5.4375 0.046875 5.007812 0.109375 4.5625 0.109375 Z M 4.5625 0.109375 "/></g></g><g style="fill:#f1f1f1;fill-opacity:1;"><g transform="translate(21.600954, 13.55006)"><path style="stroke:none" d="M 2.203125 -0.6875 C 2.203125 -0.488281 2.132812 -0.320312 2 -0.1875 C 1.863281 -0.0625 1.703125 0 1.515625 0 C 1.328125 0 1.164062 -0.0625 1.03125 -0.1875 C 0.90625 -0.320312 0.84375 -0.488281 0.84375 -0.6875 L 0.84375 -7.65625 C 0.84375 -7.84375 0.90625 -8.003906 1.03125 -8.140625 C 1.164062 -8.273438 1.332031 -8.34375 1.53125 -8.34375 C 1.726562 -8.34375 1.890625 -8.273438 2.015625 -8.140625 C 2.140625 -8.003906 2.203125 -7.84375 2.203125 -7.65625 Z M 2.203125 -0.6875 "/></g></g><g style="fill:#f1f1f1;fill-opacity:1;"><g transform="translate(24.530172, 13.55006)"><path style="stroke:none" d="M 6.578125 -3.015625 C 6.578125 -2.390625 6.4375 -1.84375 6.15625 -1.375 C 5.882812 -0.90625 5.519531 -0.539062 5.0625 -0.28125 C 4.601562 -0.0195312 4.085938 0.109375 3.515625 0.109375 C 2.941406 0.109375 2.421875 -0.0195312 1.953125 -0.28125 C 1.492188 -0.539062 1.128906 -0.90625 0.859375 -1.375 C 0.585938 -1.84375 0.453125 -2.390625 0.453125 -3.015625 C 0.453125 -3.628906 0.585938 -4.171875 0.859375 -4.640625 C 1.128906 -5.109375 1.492188 -5.472656 1.953125 -5.734375 C 2.421875 -6.003906 2.941406 -6.140625 3.515625 -6.140625 C 4.085938 -6.140625 4.601562 -6.003906 5.0625 -5.734375 C 5.519531 -5.472656 5.882812 -5.109375 6.15625 -4.640625 C 6.4375 -4.171875 6.578125 -3.628906 6.578125 -3.015625 Z M 5.234375 -3.015625 C 5.234375 -3.390625 5.15625 -3.71875 5 -4 C 4.84375 -4.28125 4.632812 -4.5 4.375 -4.65625 C 4.113281 -4.820312 3.828125 -4.90625 3.515625 -4.90625 C 3.203125 -4.90625 2.914062 -4.820312 2.65625 -4.65625 C 2.394531 -4.5 2.1875 -4.28125 2.03125 -4 C 1.875 -3.71875 1.796875 -3.390625 1.796875 -3.015625 C 1.796875 -2.628906 1.875 -2.296875 2.03125 -2.015625 C 2.1875 -1.734375 2.394531 -1.515625 2.65625 -1.359375 C 2.914062 -1.203125 3.203125 -1.125 3.515625 -1.125 C 3.828125 -1.125 4.113281 -1.203125 4.375 -1.359375 C 4.632812 -1.515625 4.84375 -1.734375 5 -2.015625 C 5.15625 -2.296875 5.234375 -2.628906 5.234375 -3.015625 Z M 5.234375 -3.015625 "/></g></g><g style="fill:#f1f1f1;fill-opacity:1;"><g transform="translate(31.560312, 13.55006)"><path style="stroke:none" d="M 3.859375 -6.140625 C 4.378906 -6.140625 4.847656 -6.003906 5.265625 -5.734375 C 5.679688 -5.472656 6.007812 -5.109375 6.25 -4.640625 C 6.5 -4.171875 6.625 -3.628906 6.625 -3.015625 C 6.625 -2.398438 6.5 -1.859375 6.25 -1.390625 C 6.007812 -0.921875 5.679688 -0.550781 5.265625 -0.28125 C 4.859375 -0.0195312 4.398438 0.109375 3.890625 0.109375 C 3.597656 0.109375 3.316406 0.0625 3.046875 -0.03125 C 2.785156 -0.132812 2.554688 -0.257812 2.359375 -0.40625 C 2.160156 -0.550781 2.003906 -0.703125 1.890625 -0.859375 C 1.785156 -1.015625 1.734375 -1.144531 1.734375 -1.25 L 2.078125 -1.390625 L 2.078125 -0.578125 C 2.078125 -0.378906 2.015625 -0.210938 1.890625 -0.078125 C 1.765625 0.046875 1.601562 0.109375 1.40625 0.109375 C 1.207031 0.109375 1.046875 0.046875 0.921875 -0.078125 C 0.796875 -0.203125 0.734375 -0.367188 0.734375 -0.578125 L 0.734375 -7.65625 C 0.734375 -7.84375 0.796875 -8.003906 0.921875 -8.140625 C 1.046875 -8.273438 1.207031 -8.34375 1.40625 -8.34375 C 1.601562 -8.34375 1.765625 -8.273438 1.890625 -8.140625 C 2.015625 -8.003906 2.078125 -7.84375 2.078125 -7.65625 L 2.078125 -4.78125 L 1.890625 -4.890625 C 1.890625 -4.984375 1.941406 -5.097656 2.046875 -5.234375 C 2.148438 -5.378906 2.289062 -5.519531 2.46875 -5.65625 C 2.65625 -5.800781 2.863281 -5.914062 3.09375 -6 C 3.332031 -6.09375 3.585938 -6.140625 3.859375 -6.140625 Z M 3.6875 -4.90625 C 3.351562 -4.90625 3.0625 -4.820312 2.8125 -4.65625 C 2.5625 -4.488281 2.367188 -4.265625 2.234375 -3.984375 C 2.097656 -3.703125 2.03125 -3.378906 2.03125 -3.015625 C 2.03125 -2.660156 2.097656 -2.335938 2.234375 -2.046875 C 2.367188 -1.765625 2.5625 -1.539062 2.8125 -1.375 C 3.0625 -1.207031 3.351562 -1.125 3.6875 -1.125 C 4.007812 -1.125 4.289062 -1.207031 4.53125 -1.375 C 4.78125 -1.539062 4.972656 -1.765625 5.109375 -2.046875 C 5.253906 -2.335938 5.328125 -2.660156 5.328125 -3.015625 C 5.328125 -3.378906 5.253906 -3.703125 5.109375 -3.984375 C 4.972656 -4.265625 4.78125 -4.488281 4.53125 -4.65625 C 4.289062 -4.820312 4.007812 -4.90625 3.6875 -4.90625 Z M 3.6875 -4.90625 "/></g></g><g style="fill:#f1f1f1;fill-opacity:1;"><g transform="translate(38.63552, 13.55006)"><path style="stroke:none" d="M 3.578125 0.109375 C 2.929688 0.109375 2.375 -0.0195312 1.90625 -0.28125 C 1.4375 -0.550781 1.078125 -0.914062 0.828125 -1.375 C 0.578125 -1.832031 0.453125 -2.347656 0.453125 -2.921875 C 0.453125 -3.597656 0.585938 -4.175781 0.859375 -4.65625 C 1.128906 -5.132812 1.488281 -5.5 1.9375 -5.75 C 2.382812 -6.007812 2.851562 -6.140625 3.34375 -6.140625 C 3.726562 -6.140625 4.09375 -6.0625 4.4375 -5.90625 C 4.78125 -5.75 5.082031 -5.53125 5.34375 -5.25 C 5.601562 -4.976562 5.8125 -4.660156 5.96875 -4.296875 C 6.125 -3.941406 6.203125 -3.5625 6.203125 -3.15625 C 6.191406 -2.976562 6.117188 -2.832031 5.984375 -2.71875 C 5.847656 -2.601562 5.691406 -2.546875 5.515625 -2.546875 L 1.203125 -2.546875 L 0.875 -3.671875 L 5 -3.671875 L 4.75 -3.453125 L 4.75 -3.75 C 4.738281 -3.96875 4.660156 -4.160156 4.515625 -4.328125 C 4.378906 -4.503906 4.207031 -4.644531 4 -4.75 C 3.789062 -4.851562 3.570312 -4.90625 3.34375 -4.90625 C 3.125 -4.90625 2.914062 -4.875 2.71875 -4.8125 C 2.519531 -4.75 2.347656 -4.644531 2.203125 -4.5 C 2.066406 -4.363281 1.957031 -4.175781 1.875 -3.9375 C 1.789062 -3.695312 1.75 -3.390625 1.75 -3.015625 C 1.75 -2.609375 1.832031 -2.265625 2 -1.984375 C 2.164062 -1.703125 2.378906 -1.488281 2.640625 -1.34375 C 2.910156 -1.195312 3.195312 -1.125 3.5 -1.125 C 3.78125 -1.125 4.003906 -1.144531 4.171875 -1.1875 C 4.335938 -1.238281 4.46875 -1.296875 4.5625 -1.359375 C 4.664062 -1.421875 4.757812 -1.472656 4.84375 -1.515625 C 4.976562 -1.585938 5.109375 -1.625 5.234375 -1.625 C 5.390625 -1.625 5.519531 -1.566406 5.625 -1.453125 C 5.738281 -1.335938 5.796875 -1.207031 5.796875 -1.0625 C 5.796875 -0.851562 5.691406 -0.664062 5.484375 -0.5 C 5.285156 -0.34375 5.007812 -0.203125 4.65625 -0.078125 C 4.3125 0.046875 3.953125 0.109375 3.578125 0.109375 Z M 3.578125 0.109375 "/></g></g><g style="fill:#f1f1f1;fill-opacity:1;"><g transform="translate(44.775569, 13.55006)"><path style="stroke:none" d="M 3.515625 0 C 3.304688 0 3.132812 -0.0625 3 -0.1875 C 2.863281 -0.320312 2.796875 -0.488281 2.796875 -0.6875 L 2.796875 -7.21875 L 4.265625 -7.21875 L 4.265625 -0.6875 C 4.265625 -0.488281 4.191406 -0.320312 4.046875 -0.1875 C 3.910156 -0.0625 3.734375 0 3.515625 0 Z M 1.03125 -6.59375 C 0.832031 -6.59375 0.664062 -6.648438 0.53125 -6.765625 C 0.40625 -6.890625 0.34375 -7.050781 0.34375 -7.25 C 0.34375 -7.4375 0.40625 -7.585938 0.53125 -7.703125 C 0.664062 -7.828125 0.832031 -7.890625 1.03125 -7.890625 L 6.03125 -7.890625 C 6.21875 -7.890625 6.378906 -7.828125 6.515625 -7.703125 C 6.648438 -7.585938 6.71875 -7.429688 6.71875 -7.234375 C 6.71875 -7.035156 6.648438 -6.878906 6.515625 -6.765625 C 6.378906 -6.648438 6.21875 -6.59375 6.03125 -6.59375 Z M 1.03125 -6.59375 "/></g></g><g style="fill:#f1f1f1;fill-opacity:1;"><g transform="translate(51.152183, 13.55006)"><path style="stroke:none" d="M 1.40625 0 C 1.207031 0 1.046875 -0.0625 0.921875 -0.1875 C 0.796875 -0.320312 0.734375 -0.488281 0.734375 -0.6875 L 0.734375 -5.34375 C 0.734375 -5.53125 0.796875 -5.691406 0.921875 -5.828125 C 1.046875 -5.960938 1.207031 -6.03125 1.40625 -6.03125 C 1.601562 -6.03125 1.765625 -5.960938 1.890625 -5.828125 C 2.015625 -5.691406 2.078125 -5.53125 2.078125 -5.34375 L 2.078125 -4.28125 L 2 -5.03125 C 2.082031 -5.21875 2.191406 -5.378906 2.328125 -5.515625 C 2.460938 -5.648438 2.609375 -5.765625 2.765625 -5.859375 C 2.929688 -5.953125 3.109375 -6.019531 3.296875 -6.0625 C 3.484375 -6.113281 3.671875 -6.140625 3.859375 -6.140625 C 4.085938 -6.140625 4.273438 -6.070312 4.421875 -5.9375 C 4.578125 -5.8125 4.65625 -5.664062 4.65625 -5.5 C 4.65625 -5.25 4.59375 -5.066406 4.46875 -4.953125 C 4.34375 -4.847656 4.207031 -4.796875 4.0625 -4.796875 C 3.914062 -4.796875 3.785156 -4.820312 3.671875 -4.875 C 3.554688 -4.925781 3.421875 -4.953125 3.265625 -4.953125 C 3.128906 -4.953125 2.988281 -4.921875 2.84375 -4.859375 C 2.707031 -4.796875 2.582031 -4.695312 2.46875 -4.5625 C 2.351562 -4.425781 2.257812 -4.257812 2.1875 -4.0625 C 2.113281 -3.863281 2.078125 -3.628906 2.078125 -3.359375 L 2.078125 -0.6875 C 2.078125 -0.488281 2.015625 -0.320312 1.890625 -0.1875 C 1.765625 -0.0625 1.601562 0 1.40625 0 Z M 1.40625 0 "/></g></g><g style="fill:#f1f1f1;fill-opacity:1;"><g transform="translate(55.90652, 13.55006)"><path style="stroke:none" d="M 5.671875 -6.140625 C 5.859375 -6.140625 6.015625 -6.070312 6.140625 -5.9375 C 6.273438 -5.8125 6.34375 -5.648438 6.34375 -5.453125 L 6.34375 -0.6875 C 6.34375 -0.488281 6.273438 -0.320312 6.140625 -0.1875 C 6.015625 -0.0625 5.859375 0 5.671875 0 C 5.472656 0 5.304688 -0.0625 5.171875 -0.1875 C 5.046875 -0.320312 4.984375 -0.488281 4.984375 -0.6875 L 4.984375 -1.234375 L 5.234375 -1.140625 C 5.234375 -1.035156 5.179688 -0.914062 5.078125 -0.78125 C 4.972656 -0.644531 4.828125 -0.507812 4.640625 -0.375 C 4.460938 -0.238281 4.253906 -0.125 4.015625 -0.03125 C 3.773438 0.0625 3.507812 0.109375 3.21875 0.109375 C 2.695312 0.109375 2.226562 -0.0195312 1.8125 -0.28125 C 1.394531 -0.550781 1.0625 -0.921875 0.8125 -1.390625 C 0.570312 -1.859375 0.453125 -2.398438 0.453125 -3.015625 C 0.453125 -3.628906 0.570312 -4.171875 0.8125 -4.640625 C 1.0625 -5.109375 1.390625 -5.472656 1.796875 -5.734375 C 2.210938 -6.003906 2.671875 -6.140625 3.171875 -6.140625 C 3.492188 -6.140625 3.789062 -6.085938 4.0625 -5.984375 C 4.332031 -5.890625 4.566406 -5.765625 4.765625 -5.609375 C 4.960938 -5.460938 5.113281 -5.3125 5.21875 -5.15625 C 5.332031 -5.007812 5.390625 -4.882812 5.390625 -4.78125 L 4.984375 -4.625 L 4.984375 -5.453125 C 4.984375 -5.648438 5.046875 -5.8125 5.171875 -5.9375 C 5.304688 -6.070312 5.472656 -6.140625 5.671875 -6.140625 Z M 3.390625 -1.125 C 3.722656 -1.125 4.007812 -1.207031 4.25 -1.375 C 4.5 -1.539062 4.691406 -1.765625 4.828125 -2.046875 C 4.972656 -2.335938 5.046875 -2.660156 5.046875 -3.015625 C 5.046875 -3.367188 4.972656 -3.6875 4.828125 -3.96875 C 4.691406 -4.257812 4.5 -4.488281 4.25 -4.65625 C 4.007812 -4.820312 3.722656 -4.90625 3.390625 -4.90625 C 3.066406 -4.90625 2.78125 -4.820312 2.53125 -4.65625 C 2.28125 -4.488281 2.085938 -4.257812 1.953125 -3.96875 C 1.816406 -3.6875 1.75 -3.367188 1.75 -3.015625 C 1.75 -2.660156 1.816406 -2.335938 1.953125 -2.046875 C 2.085938 -1.765625 2.28125 -1.539062 2.53125 -1.375 C 2.78125 -1.207031 3.066406 -1.125 3.390625 -1.125 Z M 3.390625 -1.125 "/></g></g><g style="fill:#f1f1f1;fill-opacity:1;"><g transform="translate(62.981729, 13.55006)"><path style="stroke:none" d="M 1.515625 0 C 1.328125 0 1.164062 -0.0625 1.03125 -0.1875 C 0.90625 -0.320312 0.84375 -0.488281 0.84375 -0.6875 L 0.84375 -7.65625 C 0.84375 -7.84375 0.90625 -8.003906 1.03125 -8.140625 C 1.164062 -8.273438 1.328125 -8.34375 1.515625 -8.34375 C 1.710938 -8.34375 1.875 -8.273438 2 -8.140625 C 2.132812 -8.003906 2.203125 -7.84375 2.203125 -7.65625 L 2.203125 -0.6875 C 2.203125 -0.488281 2.132812 -0.320312 2 -0.1875 C 1.875 -0.0625 1.710938 0 1.515625 0 Z M 5.109375 -6.03125 C 5.273438 -6.03125 5.421875 -5.957031 5.546875 -5.8125 C 5.679688 -5.664062 5.75 -5.523438 5.75 -5.390625 C 5.75 -5.210938 5.65625 -5.046875 5.46875 -4.890625 L 2.078125 -1.765625 L 2.03125 -3.328125 L 4.609375 -5.8125 C 4.753906 -5.957031 4.921875 -6.03125 5.109375 -6.03125 Z M 5.265625 -0.015625 C 5.078125 -0.015625 4.914062 -0.0859375 4.78125 -0.234375 L 2.6875 -2.4375 L 3.71875 -3.390625 L 5.75 -1.1875 C 5.882812 -1.03125 5.953125 -0.859375 5.953125 -0.671875 C 5.953125 -0.484375 5.875 -0.328125 5.71875 -0.203125 C 5.570312 -0.078125 5.421875 -0.015625 5.265625 -0.015625 Z M 5.265625 -0.015625 "/></g></g><g style="fill:#f1f1f1;fill-opacity:1;"><g transform="translate(69.335897, 13.55006)"><path style="stroke:none" d="M 1.515625 0 C 1.328125 0 1.164062 -0.0625 1.03125 -0.1875 C 0.90625 -0.320312 0.84375 -0.488281 0.84375 -0.6875 L 0.84375 -7.65625 C 0.84375 -7.84375 0.90625 -8.003906 1.03125 -8.140625 C 1.164062 -8.273438 1.328125 -8.34375 1.515625 -8.34375 C 1.710938 -8.34375 1.875 -8.273438 2 -8.140625 C 2.132812 -8.003906 2.203125 -7.84375 2.203125 -7.65625 L 2.203125 -0.6875 C 2.203125 -0.488281 2.132812 -0.320312 2 -0.1875 C 1.875 -0.0625 1.710938 0 1.515625 0 Z M 5.109375 -6.03125 C 5.273438 -6.03125 5.421875 -5.957031 5.546875 -5.8125 C 5.679688 -5.664062 5.75 -5.523438 5.75 -5.390625 C 5.75 -5.210938 5.65625 -5.046875 5.46875 -4.890625 L 2.078125 -1.765625 L 2.03125 -3.328125 L 4.609375 -5.8125 C 4.753906 -5.957031 4.921875 -6.03125 5.109375 -6.03125 Z M 5.265625 -0.015625 C 5.078125 -0.015625 4.914062 -0.0859375 4.78125 -0.234375 L 2.6875 -2.4375 L 3.71875 -3.390625 L 5.75 -1.1875 C 5.882812 -1.03125 5.953125 -0.859375 5.953125 -0.671875 C 5.953125 -0.484375 5.875 -0.328125 5.71875 -0.203125 C 5.570312 -0.078125 5.421875 -0.015625 5.265625 -0.015625 Z M 5.265625 -0.015625 "/></g></g><g style="fill:#f1f1f1;fill-opacity:1;"><g transform="translate(75.498513, 13.55006)"><path style="stroke:none" d="M 3.578125 0.109375 C 2.929688 0.109375 2.375 -0.0195312 1.90625 -0.28125 C 1.4375 -0.550781 1.078125 -0.914062 0.828125 -1.375 C 0.578125 -1.832031 0.453125 -2.347656 0.453125 -2.921875 C 0.453125 -3.597656 0.585938 -4.175781 0.859375 -4.65625 C 1.128906 -5.132812 1.488281 -5.5 1.9375 -5.75 C 2.382812 -6.007812 2.851562 -6.140625 3.34375 -6.140625 C 3.726562 -6.140625 4.09375 -6.0625 4.4375 -5.90625 C 4.78125 -5.75 5.082031 -5.53125 5.34375 -5.25 C 5.601562 -4.976562 5.8125 -4.660156 5.96875 -4.296875 C 6.125 -3.941406 6.203125 -3.5625 6.203125 -3.15625 C 6.191406 -2.976562 6.117188 -2.832031 5.984375 -2.71875 C 5.847656 -2.601562 5.691406 -2.546875 5.515625 -2.546875 L 1.203125 -2.546875 L 0.875 -3.671875 L 5 -3.671875 L 4.75 -3.453125 L 4.75 -3.75 C 4.738281 -3.96875 4.660156 -4.160156 4.515625 -4.328125 C 4.378906 -4.503906 4.207031 -4.644531 4 -4.75 C 3.789062 -4.851562 3.570312 -4.90625 3.34375 -4.90625 C 3.125 -4.90625 2.914062 -4.875 2.71875 -4.8125 C 2.519531 -4.75 2.347656 -4.644531 2.203125 -4.5 C 2.066406 -4.363281 1.957031 -4.175781 1.875 -3.9375 C 1.789062 -3.695312 1.75 -3.390625 1.75 -3.015625 C 1.75 -2.609375 1.832031 -2.265625 2 -1.984375 C 2.164062 -1.703125 2.378906 -1.488281 2.640625 -1.34375 C 2.910156 -1.195312 3.195312 -1.125 3.5 -1.125 C 3.78125 -1.125 4.003906 -1.144531 4.171875 -1.1875 C 4.335938 -1.238281 4.46875 -1.296875 4.5625 -1.359375 C 4.664062 -1.421875 4.757812 -1.472656 4.84375 -1.515625 C 4.976562 -1.585938 5.109375 -1.625 5.234375 -1.625 C 5.390625 -1.625 5.519531 -1.566406 5.625 -1.453125 C 5.738281 -1.335938 5.796875 -1.207031 5.796875 -1.0625 C 5.796875 -0.851562 5.691406 -0.664062 5.484375 -0.5 C 5.285156 -0.34375 5.007812 -0.203125 4.65625 -0.078125 C 4.3125 0.046875 3.953125 0.109375 3.578125 0.109375 Z M 3.578125 0.109375 "/></g></g><g style="fill:#f1f1f1;fill-opacity:1;"><g transform="translate(82.145604, 13.55006)"><path style="stroke:none" d="M 1.40625 0 C 1.207031 0 1.046875 -0.0625 0.921875 -0.1875 C 0.796875 -0.320312 0.734375 -0.488281 0.734375 -0.6875 L 0.734375 -5.34375 C 0.734375 -5.53125 0.796875 -5.691406 0.921875 -5.828125 C 1.046875 -5.960938 1.207031 -6.03125 1.40625 -6.03125 C 1.601562 -6.03125 1.765625 -5.960938 1.890625 -5.828125 C 2.015625 -5.691406 2.078125 -5.53125 2.078125 -5.34375 L 2.078125 -4.28125 L 2 -5.03125 C 2.082031 -5.21875 2.191406 -5.378906 2.328125 -5.515625 C 2.460938 -5.648438 2.609375 -5.765625 2.765625 -5.859375 C 2.929688 -5.953125 3.109375 -6.019531 3.296875 -6.0625 C 3.484375 -6.113281 3.671875 -6.140625 3.859375 -6.140625 C 4.085938 -6.140625 4.273438 -6.070312 4.421875 -5.9375 C 4.578125 -5.8125 4.65625 -5.664062 4.65625 -5.5 C 4.65625 -5.25 4.59375 -5.066406 4.46875 -4.953125 C 4.34375 -4.847656 4.207031 -4.796875 4.0625 -4.796875 C 3.914062 -4.796875 3.785156 -4.820312 3.671875 -4.875 C 3.554688 -4.925781 3.421875 -4.953125 3.265625 -4.953125 C 3.128906 -4.953125 2.988281 -4.921875 2.84375 -4.859375 C 2.707031 -4.796875 2.582031 -4.695312 2.46875 -4.5625 C 2.351562 -4.425781 2.257812 -4.257812 2.1875 -4.0625 C 2.113281 -3.863281 2.078125 -3.628906 2.078125 -3.359375 L 2.078125 -0.6875 C 2.078125 -0.488281 2.015625 -0.320312 1.890625 -0.1875 C 1.765625 -0.0625 1.601562 0 1.40625 0 Z M 1.40625 0 "/></g></g></g></svg>