<svg xmlns="http://www.w3.org/2000/svg" xmlns:xlink="http://www.w3.org/1999/xlink" width="12" zoomAndPan="magnify" viewBox="0 0 9 14.25" height="19" preserveAspectRatio="xMidYMid meet" version="1.2"><defs><clipPath id="b7e46407e6"><path d="M 0.226562 0 L 8.773438 0 L 8.773438 12.824219 L 0.226562 12.824219 Z M 0.226562 0 "/></clipPath><clipPath id="fa60a92e11"><path d="M 0.226562 0 L 8.773438 0 L 8.773438 12.824219 L 0.226562 12.824219 Z M 0.226562 0 "/></clipPath></defs><g id="a1200cf4e5"><g clip-rule="nonzero" clip-path="url(#b7e46407e6)"><path style=" stroke:none;fill-rule:nonzero;fill:#ffcc00;fill-opacity:1;" d="M 4.421875 0 C 2.105469 0 0.226562 1.878906 0.226562 4.199219 C 0.226562 7.242188 4.421875 12.824219 4.421875 12.824219 C 4.421875 12.824219 8.617188 7.242188 8.617188 4.199219 C 8.617188 1.878906 6.738281 0 4.421875 0 "/></g><path style=" stroke:none;fill-rule:nonzero;fill:#ffffff;fill-opacity:1;" d="M 6.957031 4.199219 C 6.957031 5.597656 5.820312 6.734375 4.421875 6.734375 C 3.023438 6.734375 1.886719 5.597656 1.886719 4.199219 C 1.886719 2.800781 3.023438 1.664062 4.421875 1.664062 C 5.820312 1.664062 6.957031 2.800781 6.957031 4.199219 "/><g clip-rule="nonzero" clip-path="url(#fa60a92e11)"><path style=" stroke:none;fill-rule:nonzero;fill:#ffcc00;fill-opacity:1;" d="M 4.421875 0 C 2.105469 0 0.226562 1.878906 0.226562 4.199219 C 0.226562 7.242188 4.421875 12.824219 4.421875 12.824219 C 4.421875 12.824219 8.617188 7.242188 8.617188 4.199219 C 8.617188 1.878906 6.738281 0 4.421875 0 "/></g><path style=" stroke:none;fill-rule:nonzero;fill:#ffffff;fill-opacity:1;" d="M 6.957031 4.199219 C 6.957031 5.597656 5.820312 6.734375 4.421875 6.734375 C 3.023438 6.734375 1.886719 5.597656 1.886719 4.199219 C 1.886719 2.800781 3.023438 1.664062 4.421875 1.664062 C 5.820312 1.664062 6.957031 2.800781 6.957031 4.199219 "/></g></svg>